HIERARCHY
ROOT Hips
{
  OFFSET 5.72205e-005 65.662 3.42586
  CHANNELS 6 Xposition Yposition Zposition Zrotation Xrotation Yrotation
  JOINT Chest
  {
    OFFSET 0 8.7983 -4.7612
    CHANNELS 3 Zrotation Xrotation Yrotation
    JOINT Chest2
    {
      OFFSET 0 8.0291 0.4195
      CHANNELS 3 Zrotation Xrotation Yrotation
      JOINT Chest3
      {
        OFFSET 0 9.9351 -2.2114
        CHANNELS 3 Zrotation Xrotation Yrotation
        JOINT Neck
        {
          OFFSET 0 22.3885 -0.4656
          CHANNELS 3 Zrotation Xrotation Yrotation
          JOINT Head
          {
            OFFSET -0.0001 12.643 3.4389
            CHANNELS 3 Zrotation Xrotation Yrotation
            End Site
            {
              OFFSET 0.0001 17.6655 0.5274
            }
          }
        }
        JOINT LeftCollar
        {
          OFFSET 2.2603 21.606 7.4023
          CHANNELS 3 Zrotation Xrotation Yrotation
          JOINT LeftShoulder
          {
            OFFSET 13.5163 -1.1332 -5.0146
            CHANNELS 3 Zrotation Xrotation Yrotation
            JOINT LeftElbow
            {
              OFFSET -0.0995 -28.05 -0.2431
              CHANNELS 3 Zrotation Xrotation Yrotation
              JOINT LeftWrist
              {
                OFFSET 0.0679 -23.3996 -0.1402
                CHANNELS 3 Zrotation Xrotation Yrotation
                JOINT LeftFinger1
                {
                  OFFSET 0.7932 -9.069 2.5189
                  CHANNELS 3 Zrotation Xrotation Yrotation
                  JOINT LeftFinger11
                  {
                    OFFSET -0.8272 -3.3923 0.5977
                    CHANNELS 3 Zrotation Xrotation Yrotation
                    JOINT LeftFinger12
                    {
                      OFFSET -0.5649 -2.3158 0.4082
                      CHANNELS 3 Zrotation Xrotation Yrotation
                      End Site
                      {
                        OFFSET -0.4919 -1.6479 0.2673
                      }
                    }
                  }
                }
                JOINT LeftFinger2
                {
                  OFFSET 0.9159 -9.2044 0.2193
                  CHANNELS 3 Zrotation Xrotation Yrotation
                  JOINT LeftFinger21
                  {
                    OFFSET 0.0117 -4.1944 -0.0248
                    CHANNELS 3 Zrotation Xrotation Yrotation
                    JOINT LeftFinger22
                    {
                      OFFSET 0.0071 -2.3249 -0.0142
                      CHANNELS 3 Zrotation Xrotation Yrotation
                      End Site
                      {
                        OFFSET -0.1475 -2.0882 0.0028
                      }
                    }
                  }
                }
                JOINT LeftFinger3
                {
                  OFFSET 0.6113 -8.7231 -2.0637
                  CHANNELS 3 Zrotation Xrotation Yrotation
                  JOINT LeftFinger31
                  {
                    OFFSET -0.1927 -3.8059 -0.2383
                    CHANNELS 3 Zrotation Xrotation Yrotation
                    JOINT LeftFinger32
                    {
                      OFFSET -0.1091 -2.1688 -0.1362
                      CHANNELS 3 Zrotation Xrotation Yrotation
                      End Site
                      {
                        OFFSET -0.2358 -1.9176 -0.0906
                      }
                    }
                  }
                }
                JOINT LeftFinger4
                {
                  OFFSET -0.6151 -8.0947 -3.5641
                  CHANNELS 3 Zrotation Xrotation Yrotation
                  JOINT LeftFinger41
                  {
                    OFFSET -0.4882 -2.341 -0.6462
                    CHANNELS 3 Zrotation Xrotation Yrotation
                    JOINT LeftFinger42
                    {
                      OFFSET -0.3575 -1.7167 -0.4742
                      CHANNELS 3 Zrotation Xrotation Yrotation
                      End Site
                      {
                        OFFSET -0.4187 -1.5237 -0.3496
                      }
                    }
                  }
                }
                JOINT LeftFinger0
                {
                  OFFSET -1.42 -1.8761 1.4223
                  CHANNELS 3 Zrotation Xrotation Yrotation
                  JOINT LeftFinger01
                  {
                    OFFSET -1.1471 -3.4929 2.6334
                    CHANNELS 3 Zrotation Xrotation Yrotation
                    JOINT LeftFinger02
                    {
                      OFFSET -0.823 -2.3 1.6571
                      CHANNELS 3 Zrotation Xrotation Yrotation
                      End Site
                      {
                        OFFSET -0.5822 -1.6914 1.1582
                      }
                    }
                  }
                }
              }
            }
          }
        }
        JOINT RightCollar
        {
          OFFSET -2.2603 21.606 7.4023
          CHANNELS 3 Zrotation Xrotation Yrotation
          JOINT RightShoulder
          {
            OFFSET -13.5187 -1.1334 -5.0155
            CHANNELS 3 Zrotation Xrotation Yrotation
            JOINT RightElbow
            {
              OFFSET 0.0994 -28.0499 -0.2431
              CHANNELS 3 Zrotation Xrotation Yrotation
              JOINT RightWrist
              {
                OFFSET -0.0679 -23.3996 -0.1402
                CHANNELS 3 Zrotation Xrotation Yrotation
                JOINT RightFinger1
                {
                  OFFSET -0.7932 -9.0691 2.5189
                  CHANNELS 3 Zrotation Xrotation Yrotation
                  JOINT RightFinger11
                  {
                    OFFSET 0.8272 -3.3923 0.5977
                    CHANNELS 3 Zrotation Xrotation Yrotation
                    JOINT RightFinger12
                    {
                      OFFSET 0.565 -2.3158 0.4082
                      CHANNELS 3 Zrotation Xrotation Yrotation
                      End Site
                      {
                        OFFSET 0.4919 -1.6479 0.2673
                      }
                    }
                  }
                }
                JOINT RightFinger2
                {
                  OFFSET -0.916 -9.2044 0.2193
                  CHANNELS 3 Zrotation Xrotation Yrotation
                  JOINT RightFinger21
                  {
                    OFFSET -0.0117 -4.1944 -0.0248
                    CHANNELS 3 Zrotation Xrotation Yrotation
                    JOINT RightFinger22
                    {
                      OFFSET -0.0071 -2.3249 -0.0142
                      CHANNELS 3 Zrotation Xrotation Yrotation
                      End Site
                      {
                        OFFSET 0.1475 -2.0882 0.0028
                      }
                    }
                  }
                }
                JOINT RightFinger3
                {
                  OFFSET -0.6113 -8.7231 -2.0637
                  CHANNELS 3 Zrotation Xrotation Yrotation
                  JOINT RightFinger31
                  {
                    OFFSET 0.1927 -3.8059 -0.2383
                    CHANNELS 3 Zrotation Xrotation Yrotation
                    JOINT RightFinger32
                    {
                      OFFSET 0.1091 -2.1688 -0.1362
                      CHANNELS 3 Zrotation Xrotation Yrotation
                      End Site
                      {
                        OFFSET 0.2358 -1.9176 -0.0906
                      }
                    }
                  }
                }
                JOINT RightFinger4
                {
                  OFFSET 0.6151 -8.0947 -3.564
                  CHANNELS 3 Zrotation Xrotation Yrotation
                  JOINT RightFinger41
                  {
                    OFFSET 0.4882 -2.341 -0.6462
                    CHANNELS 3 Zrotation Xrotation Yrotation
                    JOINT RightFinger42
                    {
                      OFFSET 0.3574 -1.7166 -0.4742
                      CHANNELS 3 Zrotation Xrotation Yrotation
                      End Site
                      {
                        OFFSET 0.4187 -1.5237 -0.3496
                      }
                    }
                  }
                }
                JOINT RightFinger0
                {
                  OFFSET 1.4199 -1.8761 1.4221
                  CHANNELS 3 Zrotation Xrotation Yrotation
                  JOINT RightFinger01
                  {
                    OFFSET 1.1472 -3.4929 2.6336
                    CHANNELS 3 Zrotation Xrotation Yrotation
                    JOINT RightFinger02
                    {
                      OFFSET 0.8229 -2.3 1.6571
                      CHANNELS 3 Zrotation Xrotation Yrotation
                      End Site
                      {
                        OFFSET 0.5822 -1.6914 1.1582
                      }
                    }
                  }
                }
              }
            }
          }
        }
      }
    }
  }
  JOINT RightHip
  {
    OFFSET -9.412 3.9771 -0.7758
    CHANNELS 3 Zrotation Xrotation Yrotation
    JOINT RightKnee
    {
      OFFSET -0.7531 -40.938 0
      CHANNELS 3 Zrotation Xrotation Yrotation
      JOINT RightAnkle
      {
        OFFSET 0 -40.1986 0
        CHANNELS 3 Zrotation Xrotation Yrotation
        JOINT RightToe
        {
          OFFSET 0 -4.4182 9.239
          CHANNELS 3 Zrotation Xrotation Yrotation
          End Site
          {
            OFFSET 0 0 6.1981
          }
        }
      }
    }
  }
  JOINT LeftHip
  {
    OFFSET 9.4119 3.9773 -0.7758
    CHANNELS 3 Zrotation Xrotation Yrotation
    JOINT LeftKnee
    {
      OFFSET 0.7532 -40.9383 0
      CHANNELS 3 Zrotation Xrotation Yrotation
      JOINT LeftAnkle
      {
        OFFSET 0 -40.1986 0
        CHANNELS 3 Zrotation Xrotation Yrotation
        JOINT LeftToe
        {
          OFFSET 0 -4.4182 9.239
          CHANNELS 3 Zrotation Xrotation Yrotation
          End Site
          {
            OFFSET 0 0 6.1981
          }
        }
      }
    }
  }
}
MOTION
Frames:	4
Frame Time:	0.0333333
5.72205e-005 65.662 3.42586 0 0 -0 0 0 -0 0 0 -0 0 0 -0 0 0 -0 0 0 -0 0 0 -12.5014 88.1196 14.2451 10.6914 -0.00160068 -0.00239207 0.000740045 -8.4365e-005 7.00714e-005 -9.52055e-007 9.93923e-017 -1.98785e-016 -1.59028e-015 9.93923e-017 -5.96354e-016 -1.59028e-015 -9.93923e-017 -5.96354e-016 -1.59028e-015 9.93923e-017 -1.98785e-016 -1.59028e-015 -0.0128176 0.00232552 8.52707e-005 9.93923e-017 5.96354e-016 -0 9.93923e-017 -1.98785e-016 -1.59028e-015 -0.0160551 0.00299681 0.000857156 -2.48481e-016 0 3.18055e-015 9.93923e-017 -1.98785e-016 -1.59028e-015 -0.0125865 0.0031206 0.00282719 0 1.98785e-016 -0 9.93923e-017 -1.98785e-016 -1.59028e-015 9.93923e-017 -5.96354e-016 -1.59028e-015 -9.93923e-017 -5.96354e-016 -1.59028e-015 -0.865644 0.16582 7.03859 -88.0329 10.2057 -10.5567 0.0015593 -0.00248883 -0.000788628 7.87605e-005 4.10553e-005 1.24965e-005 -3.97569e-016 -7.95139e-016 3.18055e-015 -1.98785e-016 -3.97569e-016 3.18055e-015 -1.98785e-016 0 3.18055e-015 -3.97569e-016 -7.95139e-016 3.18055e-015 0.0129473 0.00231697 -8.70038e-005 9.93923e-017 -7.95139e-016 1.59028e-015 -3.97569e-016 -7.95139e-016 3.18055e-015 0.0163314 0.00303369 -0.000872333 3.97569e-016 7.95139e-016 -3.18055e-015 -3.97569e-016 -7.95139e-016 3.18055e-015 0.0145763 0.00367772 -0.00326275 9.93923e-017 -3.97569e-016 -0 -3.97569e-016 -7.95139e-016 3.18055e-015 -1.98785e-016 -3.97569e-016 3.18055e-015 -1.98785e-016 0 3.18055e-015 3.42482 1.32465 -0.0626183 0.000117508 0.717283 0.000978199 -3.4257 -2.04197 -0.0604716 6.47761e-025 0 -0 -3.42483 1.34017 0.0627307 -0.000193936 0.682302 -0.0013703 3.42574 -2.02253 0.0595886 -8.45714e-024 0 -7.40531e-025 
-1.98756 38.2944 -16.5805 2.16202e-008 -6.59993 -1.93111e-008 0.0993419 10.5005 -0.0640577 0.216476 21.0009 -0.150917 0.216476 21.0009 -0.150917 0.359358 21.5023 -0.169028 3.37099 -4.86412 0.379334 9.16848 7.33944 -40.6858 65.5979 2.91831 53.1785 -99.9545 -79.2059 -123.068 -0.387234 -12.8878 20.8549 5.81942e-006 -1.73457e-006 2.15668e-006 -5.81942e-006 1.73457e-006 -2.15668e-006 5.81942e-006 -1.73457e-006 2.15668e-006 5.81942e-006 -1.73457e-006 2.15668e-006 -0.0128525 0.00233492 8.11524e-005 -3.18055e-015 3.18055e-015 -7.95139e-015 5.81942e-006 -1.73457e-006 2.15668e-006 -0.0160716 0.00300027 0.000854621 4.43436e-006 -1.73614e-006 2.70131e-006 5.81942e-006 -1.73457e-006 2.15668e-006 -0.0125212 0.00310241 0.00280582 2.49767e-006 -6.33165e-006 -5.42297e-006 5.81942e-006 -1.73457e-006 2.15668e-006 -5.81942e-006 1.73457e-006 -2.15668e-006 5.81942e-006 -1.73457e-006 2.15668e-006 -9.23839 7.67593 34.0726 -64.9629 -0.42425 -51.1288 100.896 -80.695 123.189 -5.09642 18.2484 7.33461 -6.36111e-015 -3.97569e-016 1.49089e-015 -4.77083e-015 0 1.39149e-015 -3.18055e-015 0 5.96354e-016 -6.36111e-015 -3.97569e-016 1.49089e-015 0.0128993 0.00229458 -8.21991e-005 4.77083e-015 1.19271e-014 1.2921e-015 -6.36111e-015 -3.97569e-016 1.49089e-015 0.0163469 0.00304292 -0.000878375 1.2274e-006 -7.23115e-006 1.14864e-005 -6.36111e-015 -3.97569e-016 1.49089e-015 0.0145676 0.0036824 -0.00326412 3.18055e-015 -7.95139e-016 1.19271e-015 -6.36111e-015 -3.97569e-016 1.49089e-015 -4.77083e-015 0 1.39149e-015 -3.18055e-015 0 5.96354e-016 -9.2993 0.487828 -6.3721 -7.83741 79.4477 11.4042 -15.1354 32.3996 -1.66901 -6.76352e-007 1.06642e-005 1.38597e-006 8.44695 1.01695 6.30563 7.27957 79.3741 -10.8125 14.6036 32.8661 2.53521 5.13757e-007 -1.83746e-007 -1.59512e-006 
-2.87949 26.1651 -25.5886 1.15892e-007 -9.90781 -3.32268e-008 0.158753 15.3721 -0.110024 0.370793 30.7439 -0.282424 0.37079 30.7437 -0.282422 0.571451 31.1124 -0.313586 4.91809 -7.94294 0.624033 15.699 8.58891 -53.2916 56.3756 -2.74668 72.0278 -176.816 -46.9149 149.973 -0.448554 -18.4774 30.328 -2.11868e-030 1.27222e-014 9.54166e-015 -9.34749e-006 5.67712e-006 -3.93851e-006 -6.36111e-015 0 -6.36111e-015 -2.11868e-030 1.27222e-014 9.54166e-015 -0.012837 0.00233377 8.61121e-005 -0 -3.18055e-015 -0 -2.11868e-030 1.27222e-014 9.54166e-015 -0.0160261 0.00299835 0.00085216 5.29669e-031 -9.54166e-015 3.18055e-015 -2.11868e-030 1.27222e-014 9.54166e-015 -0.0125672 0.00312304 0.00281805 6.36111e-015 2.22639e-014 -6.36111e-015 -2.11868e-030 1.27222e-014 9.54166e-015 -9.34749e-006 5.67712e-006 -3.93851e-006 -6.36111e-015 0 -6.36111e-015 -15.4964 9.02388 46.208 -55.2301 -5.79803 -69.1138 -179.047 -47.4567 -147.39 -7.46477 26.7744 10.8244 -3.24146e-032 -7.95139e-016 -2.33572e-015 7.95139e-016 -7.95139e-016 -2.38542e-015 7.95139e-016 -7.95139e-016 -2.43511e-015 -3.24146e-032 -7.95139e-016 -2.33572e-015 0.0129233 0.00232067 -8.98939e-005 1.59028e-015 7.95139e-016 7.55382e-015 -3.24146e-032 -7.95139e-016 -2.33572e-015 0.0163061 0.00303671 -0.000873997 1.59028e-015 7.95139e-016 -4.91992e-015 -3.24146e-032 -7.95139e-016 -2.33572e-015 0.0146059 0.00368236 -0.00326888 4.0001e-032 7.95139e-016 -2.88238e-015 -3.24146e-032 -7.95139e-016 -2.33572e-015 7.95139e-016 -7.95139e-016 -2.38542e-015 7.95139e-016 -7.95139e-016 -2.43511e-015 -14.7579 0.270459 -9.37855 -165.18 66.1708 168.609 -18.2969 49.9864 -4.82822 -4.9739e-008 3.73901e-006 2.63122e-006 13.484 1.047 9.33836 165.427 66.361 -168.85 16.8517 50.6984 6.57547 -1.13294e-006 -3.00076e-006 -2.32042e-006 
-2.6815 28.9048 -23.7329 7.07218e-008 -9.9237 1.06382e-008 0.144485 14.6148 -0.101226 0.333964 29.2294 -0.255246 0.333962 29.2293 -0.255244 0.51978 28.8325 -0.380919 4.59532 -9.2381 0.729658 14.6834 7.11619 -49.7445 58.3981 -1.46104 67.8561 -171.711 -55.6495 157.204 -0.169043 -16.6444 28.9573 9.54166e-015 6.36111e-015 3.18055e-015 1.59028e-014 3.18055e-015 6.36111e-015 -0 -3.18055e-015 -0 9.54166e-015 6.36111e-015 3.18055e-015 -0.0128111 0.00232437 8.6737e-005 9.54166e-015 -6.36111e-015 3.18055e-015 9.54166e-015 6.36111e-015 3.18055e-015 -0.0160439 0.00299799 0.0008496 -3.77281e-006 -2.14803e-006 -6.63891e-006 9.54166e-015 6.36111e-015 3.18055e-015 -0.0125666 0.00311285 0.00282276 3.18055e-015 -9.54166e-015 -3.18055e-015 9.54166e-015 6.36111e-015 3.18055e-015 1.59028e-014 3.18055e-015 6.36111e-015 -0 -3.18055e-015 -0 -14.6686 7.49391 42.8517 -57.3609 -4.59872 -65.128 176.131 -56.2927 -154.15 -6.69519 25.6438 9.36653 6.21202e-018 0 -4.56661e-015 1.67725e-016 -7.95139e-016 -7.7759e-015 -5.59082e-017 1.59028e-015 -4.62563e-015 6.21202e-018 0 -4.56661e-015 0.0129586 0.00230325 -7.24349e-005 6.21202e-017 1.19271e-014 -1.87215e-015 6.21202e-018 0 -4.56661e-015 0.0163785 0.003043 -0.00087469 2.85753e-016 -1.59028e-015 -1.13913e-015 6.21202e-018 0 -4.56661e-015 0.0145715 0.00366944 -0.00326045 -2.48481e-016 7.95139e-016 -7.59031e-016 6.21202e-018 0 -4.56661e-015 1.67725e-016 -7.95139e-016 -7.7759e-015 -5.59082e-017 1.59028e-015 -4.62563e-015 -13.6072 0.808511 -8.57432 -162.283 73.5319 165.866 -17.8474 45.9184 -3.87016 -7.22768e-008 3.32173e-006 -2.20582e-006 12.4543 1.51763 8.54242 162.615 73.6886 -166.177 16.8503 46.6944 5.24274 -4.96348e-007 7.90707e-006 -2.60158e-006 
